<svg width="96" height="24" viewBox="0 0 96 24" fill="none" xmlns="http://www.w3.org/2000/svg">
<path d="M4.80427 18.5486C4.59371 18.548 4.388 18.4853 4.21293 18.3683C4.03785 18.2513 3.90119 18.0852 3.82005 17.8909C3.73891 17.6966 3.7169 17.4827 3.75679 17.2759C3.79668 17.0692 3.89668 16.8788 4.04427 16.7286C5.50814 15.2371 6.32409 13.2281 6.31472 11.1383C6.30536 9.04852 5.47145 7.04689 3.99427 5.5686C3.81505 5.36437 3.72024 5.09959 3.72908 4.82801C3.73793 4.55643 3.84977 4.29838 4.04191 4.10624C4.23405 3.9141 4.4921 3.80226 4.76368 3.79341C5.03526 3.78457 5.30003 3.87938 5.50427 4.0586C7.38045 5.93489 8.44026 8.47585 8.45337 11.1292C8.46648 13.7826 7.43182 16.3339 5.57427 18.2286C5.37016 18.4331 5.09321 18.5482 4.80427 18.5486Z" fill="#E83818"/>
<path d="M1.11425 14.8287C0.90458 14.8235 0.700965 14.7574 0.528262 14.6384C0.355559 14.5194 0.221238 14.3527 0.141703 14.1586C0.0621689 13.9645 0.0408598 13.7515 0.0803784 13.5455C0.119897 13.3396 0.218535 13.1495 0.364245 12.9987C0.883318 12.4744 1.1745 11.7665 1.1745 11.0287C1.1745 10.2909 0.883318 9.58297 0.364245 9.05869C0.254221 8.96214 0.165176 8.84404 0.102622 8.7117C0.0400676 8.57936 0.00533351 8.43559 0.000567324 8.28929C-0.00419887 8.14298 0.0211077 7.99726 0.0749158 7.86113C0.128724 7.72499 0.209889 7.60135 0.313395 7.49784C0.416902 7.39434 0.540548 7.31317 0.67668 7.25936C0.812813 7.20555 0.958539 7.18025 1.10484 7.18502C1.25115 7.18978 1.39491 7.22452 1.52725 7.28707C1.6596 7.34962 1.77769 7.43867 1.87424 7.54869C2.33744 8.00631 2.7052 8.55131 2.9562 9.15211C3.2072 9.75292 3.33644 10.3976 3.33644 11.0487C3.33644 11.6998 3.2072 12.3445 2.9562 12.9453C2.7052 13.5461 2.33744 14.0911 1.87424 14.5487C1.66739 14.738 1.39448 14.8385 1.11425 14.8287Z" fill="#E83818"/>
<path d="M20.3943 18.5487C20.2527 18.5483 20.1127 18.5198 19.9822 18.4648C19.8518 18.4099 19.7335 18.3296 19.6343 18.2287C17.7743 16.3352 16.738 13.7834 16.7511 11.1293C16.7642 8.47511 17.8257 5.93368 19.7043 4.05868C19.7991 3.94256 19.9172 3.84764 20.051 3.78009C20.1848 3.71254 20.3313 3.67386 20.481 3.66655C20.6308 3.65925 20.7804 3.68348 20.9201 3.73769C21.0599 3.79189 21.1867 3.87485 21.2923 3.9812C21.398 4.08754 21.4801 4.2149 21.5333 4.35501C21.5866 4.49512 21.6099 4.64486 21.6016 4.79453C21.5933 4.9442 21.5536 5.09045 21.4852 5.22381C21.4167 5.35718 21.321 5.47467 21.2043 5.56868C19.7314 7.05229 18.9048 9.05809 18.9048 11.1487C18.9048 13.2393 19.7314 15.2451 21.2043 16.7287C21.404 16.9292 21.5161 17.2007 21.5161 17.4837C21.5161 17.7667 21.404 18.0381 21.2043 18.2387C21.0991 18.3451 20.9725 18.4278 20.8328 18.4812C20.6931 18.5347 20.5436 18.5577 20.3943 18.5487Z" fill="#2A65A7"/>
<path d="M24.0843 14.8287C23.7988 14.8257 23.5259 14.7108 23.3243 14.5087C22.8611 14.0511 22.4933 13.5061 22.2423 12.9053C21.9913 12.3045 21.8621 11.6598 21.8621 11.0087C21.8621 10.3576 21.9913 9.71293 22.2423 9.11212C22.4933 8.51132 22.8611 7.96632 23.3243 7.5087C23.4237 7.40832 23.5421 7.32864 23.6726 7.27427C23.803 7.21989 23.9429 7.19189 24.0843 7.19189C24.2256 7.19189 24.3655 7.21989 24.496 7.27427C24.6264 7.32864 24.7448 7.40832 24.8443 7.5087C24.9443 7.60732 25.0238 7.72486 25.0781 7.85448C25.1323 7.98409 25.1602 8.12319 25.1602 8.2637C25.1602 8.40421 25.1323 8.54331 25.0781 8.67293C25.0238 8.80254 24.9443 8.92008 24.8443 9.0187C24.5848 9.277 24.379 9.584 24.2385 9.92207C24.0981 10.2601 24.0258 10.6226 24.0258 10.9887C24.0258 11.3548 24.0981 11.7173 24.2385 12.0553C24.379 12.3934 24.5848 12.7004 24.8443 12.9587C24.9905 13.1102 25.0893 13.3011 25.1284 13.5079C25.1676 13.7148 25.1454 13.9286 25.0647 14.1231C24.9839 14.3175 24.8481 14.4841 24.6739 14.6024C24.4997 14.7206 24.2948 14.7854 24.0843 14.7887V14.8287Z" fill="#2A65A7"/>
<path d="M12.6043 5.64865C11.8363 3.64666 10.6577 1.82764 9.14426 0.308655C8.94078 0.110735 8.66812 0 8.38426 0C8.1004 0 7.82774 0.110735 7.62426 0.308655C7.42634 0.512134 7.3156 0.784796 7.3156 1.06866C7.3156 1.35251 7.42634 1.62518 7.62426 1.82866C8.84424 3.03735 9.81264 4.47579 10.4735 6.06088C11.1344 7.64597 11.4747 9.34631 11.4747 11.0637C11.4747 12.781 11.1344 14.4813 10.4735 16.0664C9.81264 17.6515 8.84424 19.09 7.62426 20.2987C7.52511 20.3985 7.44659 20.5168 7.39319 20.647C7.33978 20.7771 7.31253 20.9165 7.31299 21.0572C7.31346 21.1979 7.34163 21.3371 7.39589 21.4669C7.45016 21.5967 7.52945 21.7145 7.62926 21.8137C7.72906 21.9128 7.84742 21.9913 7.97757 22.0447C8.10772 22.0981 8.24712 22.1254 8.3878 22.1249C8.52848 22.1245 8.66769 22.0963 8.79748 22.042C8.92728 21.9878 9.04511 21.9085 9.14426 21.8087C10.6574 20.2933 11.8361 18.4776 12.6043 16.4787C11.2708 12.9918 11.2708 9.13552 12.6043 5.64865V5.64865Z" fill="#E83818"/>
<path d="M13.7542 11.0586C13.7471 9.34366 14.0811 7.64442 14.7369 6.05981C15.3927 4.4752 16.3572 3.03688 17.5742 1.8286C17.6746 1.72912 17.7543 1.61074 17.8087 1.48029C17.8631 1.34985 17.8911 1.20993 17.8911 1.0686C17.8911 0.927277 17.8631 0.787352 17.8087 0.656908C17.7543 0.526463 17.6746 0.408082 17.5742 0.308601C17.3725 0.111317 17.1015 0.000854492 16.8192 0.000854492C16.537 0.000854492 16.266 0.111317 16.0642 0.308601C14.5476 1.82494 13.3685 3.64471 12.6042 5.6486C13.9246 9.13787 13.9246 12.9893 12.6042 16.4786C13.3686 18.4795 14.5478 20.2959 16.0642 21.8086C16.2685 21.9878 16.5333 22.0826 16.8048 22.0738C17.0764 22.0649 17.3345 21.9531 17.5266 21.761C17.7187 21.5688 17.8306 21.3108 17.8394 21.0392C17.8483 20.7676 17.7535 20.5028 17.5742 20.2986C16.3592 19.0868 15.396 17.6464 14.7404 16.0605C14.0848 14.4747 13.7496 12.7747 13.7542 11.0586V11.0586Z" fill="#2A65A7"/>
<path d="M38.5043 9.51867C38.4863 9.31979 38.4251 9.12723 38.3249 8.95449C38.2247 8.78176 38.088 8.63301 37.9243 8.51867C37.5219 8.24373 37.0411 8.10687 36.5543 8.12867C36.1446 8.10513 35.7391 8.22149 35.4043 8.45867C35.2653 8.55937 35.1546 8.69413 35.0828 8.85001C35.011 9.00588 34.9805 9.1776 34.9943 9.34867C34.9941 9.48603 35.0349 9.62031 35.1115 9.73433C35.1882 9.84835 35.297 9.93691 35.4243 9.98867C36.0068 10.2323 36.6135 10.4133 37.2343 10.5287C38.1931 10.6619 39.1112 11.0032 39.9243 11.5287C40.1675 11.7716 40.3545 12.065 40.472 12.3881C40.5895 12.7113 40.6346 13.0562 40.6043 13.3987C40.6197 13.7978 40.5366 14.1945 40.3621 14.5538C40.1877 14.9132 39.9274 15.2239 39.6043 15.4587C38.7878 16.0058 37.8156 16.2725 36.8343 16.2187C35.8594 16.2735 34.8954 15.991 34.1043 15.4187C33.7802 15.129 33.523 14.7725 33.3503 14.3736C33.1776 13.9748 33.0937 13.5432 33.1043 13.1087H34.9543C34.9519 13.3258 34.9994 13.5405 35.093 13.7364C35.1866 13.9323 35.3239 14.1041 35.4943 14.2387C35.8968 14.5301 36.3885 14.6715 36.8843 14.6387C37.3822 14.6659 37.8787 14.5625 38.3243 14.3387C38.4803 14.266 38.6122 14.1501 38.7044 14.0048C38.7965 13.8595 38.8451 13.6908 38.8443 13.5187C38.855 13.3681 38.8254 13.2175 38.7587 13.0822C38.6919 12.9468 38.5903 12.8317 38.4643 12.7487C37.9759 12.5024 37.4535 12.3305 36.9143 12.2387C35.878 12.079 34.8828 11.719 33.9843 11.1787C33.7299 10.9658 33.5307 10.6946 33.4036 10.3881C33.2765 10.0817 33.2253 9.74913 33.2543 9.41867C33.2418 9.01001 33.3258 8.60416 33.4995 8.23407C33.6733 7.86397 33.9319 7.54007 34.2543 7.28867C35.0108 6.73288 35.9369 6.45716 36.8743 6.50867C37.7841 6.46882 38.6781 6.75617 39.3943 7.31867C39.719 7.58869 39.9831 7.92424 40.1692 8.30335C40.3553 8.68246 40.4593 9.0966 40.4743 9.51867H38.5043Z" fill="#E83818"/>
<path d="M44.6242 16.1487C44.1764 16.1712 43.7293 16.0931 43.3157 15.92C42.9021 15.7469 42.5325 15.4834 42.2342 15.1487C41.6242 14.3745 41.3215 13.4023 41.3842 12.4187C41.3315 11.4836 41.6393 10.5638 42.2442 9.8487C42.5593 9.54833 42.934 9.31747 43.344 9.17105C43.754 9.02463 44.1901 8.96591 44.6242 8.9987C45.0702 8.96989 45.5171 9.03912 45.9334 9.20151C46.3498 9.36391 46.7255 9.61554 47.0342 9.9387C47.638 10.7002 47.9373 11.6589 47.8742 12.6287C47.8938 12.7647 47.8938 12.9027 47.8742 13.0387H43.1942C43.2046 13.4669 43.3288 13.8845 43.5542 14.2487C43.7082 14.4249 43.9018 14.5621 44.1191 14.6491C44.3364 14.736 44.5712 14.7701 44.8042 14.7487C45.0748 14.7493 45.3394 14.6693 45.5642 14.5187C45.7711 14.3931 45.9215 14.1925 45.9842 13.9587H47.8142C47.6607 14.6136 47.2639 15.1856 46.7042 15.5587C46.0877 15.9638 45.3616 16.1698 44.6242 16.1487ZM46.0042 11.8587C45.9901 11.501 45.8757 11.1545 45.6742 10.8587C45.5455 10.7022 45.3812 10.5788 45.195 10.4988C45.0089 10.4188 44.8063 10.3845 44.6042 10.3987C44.3957 10.3878 44.1879 10.432 44.0019 10.5267C43.8158 10.6215 43.658 10.7636 43.5442 10.9387C43.3768 11.2072 43.2646 11.5063 43.2142 11.8187L46.0042 11.8587Z" fill="#E83818"/>
<path d="M49.0642 9.14866H50.7742V10.1487C50.8451 10.0291 50.9253 9.91545 51.0142 9.80866C51.2478 9.52933 51.545 9.31003 51.8808 9.1691C52.2166 9.02818 52.5812 8.96973 52.9442 8.99866C53.255 8.98087 53.5661 9.02866 53.8573 9.13892C54.1484 9.24918 54.4131 9.41944 54.6342 9.63866C55.0591 10.1274 55.2778 10.7619 55.2442 11.4087V15.9987H53.4442V11.7087C53.4692 11.3731 53.3735 11.0397 53.1742 10.7687C53.0629 10.6628 52.9307 10.5814 52.786 10.5297C52.6413 10.478 52.4874 10.4572 52.3342 10.4687C52.1329 10.4554 51.9312 10.4861 51.743 10.5586C51.5547 10.6311 51.3845 10.7438 51.2442 10.8887C50.9728 11.2391 50.8377 11.6762 50.8642 12.1187V15.9987H49.0642V9.14866Z" fill="#E83818"/>
<path d="M60.7742 11.1987C60.7773 11.0729 60.7487 10.9483 60.691 10.8365C60.6333 10.7246 60.5485 10.6291 60.4442 10.5587C60.1871 10.3882 59.8823 10.3041 59.5742 10.3187C59.2929 10.3049 59.0132 10.3671 58.7642 10.4987C58.6757 10.5486 58.6021 10.6213 58.5511 10.7092C58.5001 10.7971 58.4736 10.897 58.4742 10.9987C58.4742 11.152 58.5842 11.282 58.8042 11.3887C59.1792 11.5385 59.5676 11.6524 59.9642 11.7287C60.7491 11.8546 61.5026 12.1295 62.1842 12.5387C62.3707 12.7135 62.5146 12.9289 62.6048 13.1682C62.6949 13.4074 62.7289 13.6642 62.7042 13.9187C62.705 14.2342 62.6311 14.5455 62.4886 14.8271C62.3461 15.1086 62.139 15.3525 61.8842 15.5387C61.2559 15.9687 60.5048 16.1828 59.7442 16.1487C58.895 16.2021 58.05 15.9926 57.3242 15.5487C57.0431 15.3492 56.8138 15.0853 56.6555 14.7792C56.4972 14.473 56.4144 14.1334 56.4142 13.7887H58.2442C58.2486 13.9369 58.2892 14.0818 58.3624 14.2108C58.4356 14.3398 58.5392 14.4489 58.6642 14.5287C58.9907 14.7199 59.3664 14.8103 59.7442 14.7887C60.0383 14.8033 60.3312 14.7413 60.5942 14.6087C60.6869 14.5576 60.7638 14.4822 60.8167 14.3905C60.8696 14.2988 60.8964 14.1945 60.8942 14.0887C60.886 14.0034 60.8546 13.922 60.8035 13.8533C60.7524 13.7845 60.6835 13.7311 60.6042 13.6987C60.2845 13.5532 59.9489 13.4458 59.6042 13.3787C58.792 13.2433 58.01 12.9657 57.2942 12.5587C57.0945 12.4022 56.9363 12.1991 56.8334 11.9672C56.7306 11.7353 56.6862 11.4817 56.7042 11.2287C56.6971 10.9154 56.7619 10.6047 56.8937 10.3204C57.0254 10.0361 57.2206 9.78577 57.4642 9.58867C58.0368 9.15247 58.7452 8.93285 59.4642 8.96867C60.2568 8.92784 61.0417 9.14159 61.7042 9.57867C61.9719 9.75485 62.1911 9.99558 62.3414 10.2787C62.4917 10.5618 62.5683 10.8782 62.5642 11.1987H60.7742Z" fill="#E83818"/>
<path d="M64.1143 10.4486H65.9143V15.9986H64.1143V10.4486Z" fill="#2A65A7"/>
<path d="M67.6143 9.14866H69.3343V10.1487C69.4016 10.0293 69.4785 9.9156 69.5643 9.80866C69.7979 9.52933 70.095 9.31003 70.4308 9.1691C70.7666 9.02818 71.1312 8.96973 71.4943 8.99866C71.8051 8.98087 72.1162 9.02866 72.4073 9.13892C72.6985 9.24918 72.9632 9.41944 73.1843 9.63866C73.6129 10.1252 73.8321 10.7613 73.7943 11.4087V15.9987H71.9943V11.7087C72.0193 11.3731 71.9235 11.0397 71.7243 10.7687C71.6137 10.6617 71.4815 10.5796 71.3367 10.5279C71.1918 10.4762 71.0376 10.456 70.8843 10.4687C70.6831 10.4567 70.4817 10.488 70.2937 10.5605C70.1057 10.6329 69.9354 10.7448 69.7943 10.8887C69.5228 11.2391 69.3878 11.6762 69.4143 12.1187V15.9987H67.6143V9.14866Z" fill="#2A65A7"/>
<path d="M78.5943 15.9987C78.2943 15.9987 77.9243 15.9987 77.4843 15.9987C77.0029 16.036 76.5224 15.9167 76.1143 15.6587C75.9635 15.5164 75.8473 15.3415 75.7745 15.1474C75.7017 14.9533 75.6743 14.7451 75.6943 14.5387V10.4087H74.7543V9.14872H75.7043V7.30872H77.5043V9.14872H78.6043V10.4087H77.5043V14.2887C77.4958 14.3494 77.5056 14.4113 77.5323 14.4665C77.559 14.5216 77.6014 14.5677 77.6543 14.5987C77.8397 14.6666 78.0374 14.6938 78.2343 14.6787H78.6043L78.5943 15.9987Z" fill="#2A65A7"/>
<path d="M82.4343 16.1487C81.9865 16.1712 81.5394 16.0931 81.1258 15.92C80.7121 15.7469 80.3426 15.4834 80.0443 15.1487C79.4343 14.3745 79.1316 13.4023 79.1943 12.4187C79.1415 11.4836 79.4493 10.5638 80.0543 9.8487C80.3694 9.54833 80.7441 9.31747 81.154 9.17105C81.564 9.02463 82.0002 8.96591 82.4343 8.9987C82.8807 8.96567 83.3288 9.03295 83.7458 9.1956C84.1628 9.35825 84.5381 9.61215 84.8443 9.9387C85.4481 10.6895 85.7542 11.6365 85.7043 12.5987C85.7238 12.7347 85.7238 12.8727 85.7043 13.0087H81.0643C81.0721 13.4359 81.1928 13.8533 81.4143 14.2187C81.5693 14.3964 81.7645 14.5345 81.9837 14.6214C82.2028 14.7084 82.4396 14.7418 82.6743 14.7187C82.9415 14.718 83.2025 14.6379 83.4243 14.4887C83.6311 14.3631 83.7816 14.1625 83.8443 13.9287H85.6743C85.5391 14.5915 85.1519 15.1758 84.5943 15.5587C83.9553 15.98 83.1987 16.1866 82.4343 16.1487ZM83.8143 11.8587C83.8052 11.5001 83.6904 11.1522 83.4843 10.8587C83.3555 10.7022 83.1912 10.5788 83.0051 10.4988C82.819 10.4188 82.6164 10.3845 82.4143 10.3987C82.2059 10.3888 81.9985 10.4334 81.8126 10.5281C81.6268 10.6228 81.4688 10.7643 81.3543 10.9387C81.1869 11.2072 81.0747 11.5063 81.0243 11.8187L83.8143 11.8587Z" fill="#2A65A7"/>
<path d="M86.9242 6.75867H88.7042V15.9987H86.9042L86.9242 6.75867Z" fill="#2A65A7"/>
<path d="M66.8442 7.8886C66.8462 8.25096 66.7405 8.60575 66.5406 8.90801C66.3408 9.21026 66.0557 9.44637 65.7214 9.58642C65.3872 9.72646 65.019 9.76413 64.6633 9.69465C64.3077 9.62517 63.9807 9.45168 63.7237 9.19615C63.4668 8.94062 63.2915 8.61457 63.2201 8.25931C63.1487 7.90406 63.1843 7.53559 63.3225 7.20062C63.4607 6.86565 63.6953 6.57925 63.9965 6.37772C64.2976 6.17619 64.6518 6.06861 65.0142 6.0686C65.4978 6.0686 65.9618 6.26003 66.3047 6.60106C66.6476 6.94209 66.8415 7.40499 66.8442 7.8886V7.8886ZM65.0142 6.4686C64.7309 6.46861 64.4541 6.55274 64.2187 6.71031C63.9833 6.86789 63.8 7.09182 63.6921 7.3537C63.5842 7.61558 63.5564 7.90362 63.6124 8.18128C63.6684 8.45894 63.8056 8.71372 64.0066 8.91331C64.2076 9.11289 64.4633 9.24829 64.7414 9.30233C65.0194 9.35638 65.3073 9.32663 65.5684 9.21686C65.8295 9.10709 66.0521 8.92225 66.2081 8.68578C66.364 8.4493 66.4462 8.17185 66.4442 7.8886C66.4442 7.70128 66.4071 7.51581 66.3351 7.34287C66.2631 7.16994 66.1577 7.01295 66.0247 6.88096C65.8918 6.74897 65.7341 6.64458 65.5607 6.57381C65.3872 6.50304 65.2015 6.46728 65.0142 6.4686V6.4686Z" fill="#2B6AB4"/>
<path d="M65.0142 8.94861C65.5996 8.94861 66.0742 8.47404 66.0742 7.88861C66.0742 7.30319 65.5996 6.82861 65.0142 6.82861C64.4288 6.82861 63.9542 7.30319 63.9542 7.88861C63.9542 8.47404 64.4288 8.94861 65.0142 8.94861Z" fill="#131313"/>
<path d="M64.6243 7.97866C64.8949 7.97866 65.1143 7.75928 65.1143 7.48866C65.1143 7.21804 64.8949 6.99866 64.6243 6.99866C64.3537 6.99866 64.1343 7.21804 64.1343 7.48866C64.1343 7.75928 64.3537 7.97866 64.6243 7.97866Z" fill="white"/>
</svg>
