<svg width="51" height="33" viewBox="0 0 51 33" fill="none" xmlns="http://www.w3.org/2000/svg">
<path d="M0 1.2973C0 0.58082 0.585964 0 1.30879 0H12.6516C13.3744 0 13.9604 0.58082 13.9604 1.2973C13.9604 2.01377 13.3744 2.59459 12.6516 2.59459H1.30879C0.585964 2.59459 0 2.01377 0 1.2973Z" fill="url(#paint0_linear)"/>
<path d="M35.7735 1.2973C35.7735 0.58082 36.3595 0 37.0823 0H48.4252C49.148 0 49.7339 0.58082 49.7339 1.2973C49.7339 2.01377 49.148 2.59459 48.4252 2.59459H37.0823C36.3595 2.59459 35.7735 2.01377 35.7735 1.2973Z" fill="url(#paint1_linear)"/>
<path d="M17.4505 1.2973C17.4505 0.58082 18.0365 0 18.7593 0C19.4821 0 20.0681 0.58082 20.0681 1.2973C20.0681 2.01377 19.4821 2.59459 18.7593 2.59459C18.0365 2.59459 17.4505 2.01377 17.4505 1.2973Z" fill="url(#paint2_linear)"/>
<path d="M23.5582 1.2973C23.5582 0.58082 24.1441 0 24.867 0C25.5898 0 26.1758 0.58082 26.1758 1.2973C26.1758 2.01377 25.5898 2.59459 24.867 2.59459C24.1441 2.59459 23.5582 2.01377 23.5582 1.2973Z" fill="url(#paint3_linear)"/>
<path d="M29.6659 1.2973C29.6659 0.58082 30.2518 0 30.9747 0C31.6975 0 32.2834 0.58082 32.2834 1.2973C32.2834 2.01377 31.6975 2.59459 30.9747 2.59459C30.2518 2.59459 29.6659 2.01377 29.6659 1.2973Z" fill="url(#paint4_linear)"/>
<rect y="10.3784" width="29.6659" height="1.72973" rx="0.864864" fill="url(#paint5_linear)"/>
<path d="M0 20.3431C0 19.8655 0.390643 19.4783 0.872525 19.4783C1.35441 19.4783 1.74505 19.8655 1.74505 20.3431V31.5864C1.74505 32.064 1.35441 32.4512 0.872525 32.4512C0.390643 32.4512 0 32.064 0 31.5864V20.3431Z" fill="url(#paint6_linear)"/>
<path d="M3.4901 22.9377C3.4901 22.4601 3.88074 22.0729 4.36263 22.0729C4.84451 22.0729 5.23515 22.4601 5.23515 22.9377V28.9918C5.23515 29.4694 4.84451 29.8567 4.36263 29.8567C3.88074 29.8567 3.4901 29.4694 3.4901 28.9918V22.9377Z" fill="url(#paint7_linear)"/>
<path d="M6.9802 21.6404C6.9802 21.1628 7.37085 20.7756 7.85273 20.7756C8.33461 20.7756 8.72525 21.1628 8.72525 21.6404V30.2891C8.72525 30.7667 8.33461 31.1539 7.85273 31.1539C7.37085 31.1539 6.9802 30.7667 6.9802 30.2891V21.6404Z" fill="url(#paint8_linear)"/>
<path d="M10.4703 24.6675C10.4703 24.1898 10.8609 23.8026 11.3428 23.8026C11.8247 23.8026 12.2154 24.1898 12.2154 24.6675V27.2621C12.2154 27.7397 11.8247 28.1269 11.3428 28.1269C10.8609 28.1269 10.4703 27.7397 10.4703 27.2621V24.6675Z" fill="url(#paint9_linear)"/>
<path d="M50.1702 20.3431C50.1702 19.8655 49.7796 19.4783 49.2977 19.4783C48.8158 19.4783 48.4252 19.8655 48.4252 20.3431V31.5864C48.4252 32.064 48.8158 32.4512 49.2977 32.4512C49.7796 32.4512 50.1702 32.064 50.1702 31.5864V20.3431Z" fill="url(#paint10_linear)"/>
<path d="M46.6801 22.9377C46.6801 22.4601 46.2895 22.0729 45.8076 22.0729C45.3257 22.0729 44.9351 22.4601 44.9351 22.9377V28.9918C44.9351 29.4694 45.3257 29.8567 45.8076 29.8567C46.2895 29.8567 46.6801 29.4694 46.6801 28.9918V22.9377Z" fill="url(#paint11_linear)"/>
<path d="M43.19 21.6404C43.19 21.1628 42.7994 20.7756 42.3175 20.7756C41.8356 20.7756 41.445 21.1628 41.445 21.6404V30.2891C41.445 30.7667 41.8356 31.1539 42.3175 31.1539C42.7994 31.1539 43.19 30.7667 43.19 30.2891V21.6404Z" fill="url(#paint12_linear)"/>
<path d="M39.6999 24.6675C39.6999 24.1898 39.3093 23.8026 38.8274 23.8026C38.3455 23.8026 37.9549 24.1898 37.9549 24.6675V27.2621C37.9549 27.7397 38.3455 28.1269 38.8274 28.1269C39.3093 28.1269 39.6999 27.7397 39.6999 27.2621V24.6675Z" fill="url(#paint13_linear)"/>
<path d="M15.2692 21.2737C14.7873 21.2737 14.3967 21.6609 14.3967 22.1386V30.2891C14.3967 30.7667 14.7873 31.154 15.2692 31.154H17.9985C19.6039 31.154 20.8185 30.7111 21.6561 29.8255C22.4518 28.9676 22.8567 27.7637 22.8567 26.2138C22.8567 24.6502 22.4658 23.4463 21.684 22.616C20.8464 21.7165 19.6318 21.2737 18.0264 21.2737H15.2692ZM15.9184 22.9931C15.9184 22.7543 16.1137 22.5607 16.3546 22.5607H17.7472C19.0036 22.5607 19.925 22.8512 20.5113 23.4463C21.0697 24.0275 21.3629 24.9408 21.3629 26.2138C21.3629 27.4592 21.0697 28.3725 20.4974 28.9676C19.911 29.5626 18.9757 29.867 17.7192 29.867H16.3546C16.1137 29.867 15.9184 29.6734 15.9184 29.4346V22.9931Z" fill="url(#paint14_linear)"/>
<path d="M25.276 21.2737C24.7941 21.2737 24.4034 21.6609 24.4034 22.1386V30.3998C24.4034 30.8163 24.7441 31.154 25.1643 31.154C25.5845 31.154 25.9251 30.8163 25.9251 30.3998V24.0967H25.981L28.8115 30.6303C28.9491 30.948 29.2644 31.154 29.6132 31.154H29.7757C30.1245 31.154 30.4398 30.948 30.5774 30.6303L33.4079 24.0967H33.4637V30.3998C33.4637 30.8163 33.8044 31.154 34.2246 31.154C34.6448 31.154 34.9854 30.8163 34.9854 30.3998V22.1386C34.9854 21.6609 34.5948 21.2737 34.1129 21.2737H33.7572C33.4095 21.2737 33.095 21.4784 32.9567 21.7946L29.7224 29.189H29.6805L26.4326 21.7934C26.294 21.4778 25.9798 21.2737 25.6325 21.2737H25.276Z" fill="url(#paint15_linear)"/>
<defs>
<linearGradient id="paint0_linear" x1="30.9747" y1="0" x2="30.9747" y2="2.59459" gradientUnits="userSpaceOnUse">
<stop stop-color="white"/>
<stop offset="1" stop-color="#1152FB"/>
</linearGradient>
<linearGradient id="paint1_linear" x1="30.9747" y1="0" x2="30.9747" y2="2.59459" gradientUnits="userSpaceOnUse">
<stop stop-color="white"/>
<stop offset="1" stop-color="#1152FB"/>
</linearGradient>
<linearGradient id="paint2_linear" x1="30.9747" y1="0" x2="30.9747" y2="2.59459" gradientUnits="userSpaceOnUse">
<stop stop-color="white"/>
<stop offset="1" stop-color="#1152FB"/>
</linearGradient>
<linearGradient id="paint3_linear" x1="30.9747" y1="0" x2="30.9747" y2="2.59459" gradientUnits="userSpaceOnUse">
<stop stop-color="white"/>
<stop offset="1" stop-color="#1152FB"/>
</linearGradient>
<linearGradient id="paint4_linear" x1="30.9747" y1="0" x2="30.9747" y2="2.59459" gradientUnits="userSpaceOnUse">
<stop stop-color="white"/>
<stop offset="1" stop-color="#1152FB"/>
</linearGradient>
<linearGradient id="paint5_linear" x1="0" y1="11.2432" x2="29.6659" y2="11.2432" gradientUnits="userSpaceOnUse">
<stop offset="0.0001" stop-color="#FFFC8C"/>
<stop offset="0.266966" stop-color="#F0A77B"/>
<stop offset="0.52598" stop-color="#C260CF"/>
<stop offset="0.760417" stop-color="#30359F"/>
<stop offset="1" stop-color="#5AF9FF"/>
</linearGradient>
<linearGradient id="paint6_linear" x1="24.7623" y1="19.0458" x2="24.7623" y2="32.8837" gradientUnits="userSpaceOnUse">
<stop stop-color="white"/>
<stop offset="1" stop-color="#1152FB"/>
</linearGradient>
<linearGradient id="paint7_linear" x1="24.7623" y1="19.0458" x2="24.7623" y2="32.8837" gradientUnits="userSpaceOnUse">
<stop stop-color="white"/>
<stop offset="1" stop-color="#1152FB"/>
</linearGradient>
<linearGradient id="paint8_linear" x1="24.7623" y1="19.0458" x2="24.7623" y2="32.8837" gradientUnits="userSpaceOnUse">
<stop stop-color="white"/>
<stop offset="1" stop-color="#1152FB"/>
</linearGradient>
<linearGradient id="paint9_linear" x1="24.7623" y1="19.0458" x2="24.7623" y2="32.8837" gradientUnits="userSpaceOnUse">
<stop stop-color="white"/>
<stop offset="1" stop-color="#1152FB"/>
</linearGradient>
<linearGradient id="paint10_linear" x1="24.7623" y1="19.0458" x2="24.7623" y2="32.8837" gradientUnits="userSpaceOnUse">
<stop stop-color="white"/>
<stop offset="1" stop-color="#1152FB"/>
</linearGradient>
<linearGradient id="paint11_linear" x1="24.7623" y1="19.0458" x2="24.7623" y2="32.8837" gradientUnits="userSpaceOnUse">
<stop stop-color="white"/>
<stop offset="1" stop-color="#1152FB"/>
</linearGradient>
<linearGradient id="paint12_linear" x1="24.7623" y1="19.0458" x2="24.7623" y2="32.8837" gradientUnits="userSpaceOnUse">
<stop stop-color="white"/>
<stop offset="1" stop-color="#1152FB"/>
</linearGradient>
<linearGradient id="paint13_linear" x1="24.7623" y1="19.0458" x2="24.7623" y2="32.8837" gradientUnits="userSpaceOnUse">
<stop stop-color="white"/>
<stop offset="1" stop-color="#1152FB"/>
</linearGradient>
<linearGradient id="paint14_linear" x1="24.7623" y1="19.0458" x2="24.7623" y2="32.8837" gradientUnits="userSpaceOnUse">
<stop stop-color="white"/>
<stop offset="1" stop-color="#1152FB"/>
</linearGradient>
<linearGradient id="paint15_linear" x1="24.7623" y1="19.0458" x2="24.7623" y2="32.8837" gradientUnits="userSpaceOnUse">
<stop stop-color="white"/>
<stop offset="1" stop-color="#1152FB"/>
</linearGradient>
</defs>
</svg>
