<?xml version="1.0" standalone="no"?><!DOCTYPE svg PUBLIC "-//W3C//DTD SVG 1.1//EN" "http://www.w3.org/Graphics/SVG/1.1/DTD/svg11.dtd"><svg t="1653890443976" class="icon" viewBox="0 0 1024 1024" version="1.1" xmlns="http://www.w3.org/2000/svg" p-id="8792" xmlns:xlink="http://www.w3.org/1999/xlink" width="256" height="256"><defs><style type="text/css">@font-face { font-family: feedback-iconfont; src: url("//at.alicdn.com/t/font_1031158_u69w8yhxdu.woff2?t=1630033759944") format("woff2"), url("//at.alicdn.com/t/font_1031158_u69w8yhxdu.woff?t=1630033759944") format("woff"), url("//at.alicdn.com/t/font_1031158_u69w8yhxdu.ttf?t=1630033759944") format("truetype"); }
</style></defs><path d="M972.475733 196.266667H478.190933V111.274667A51.592533 51.592533 0 0 0 426.666667 59.733333H51.524267A51.575467 51.575467 0 0 0 0 111.274667v801.450666a51.592533 51.592533 0 0 0 51.524267 51.541334h920.951466A51.575467 51.575467 0 0 0 1024 912.725333V247.808a51.575467 51.575467 0 0 0-51.524267-51.541333zM989.866667 912.725333a17.408 17.408 0 0 1-17.390934 17.408H51.524267A17.408 17.408 0 0 1 34.133333 912.725333V384h955.733334v528.725333zM34.133333 349.866667V111.274667c0-9.608533 7.799467-17.408 17.390934-17.408H426.666667a17.408 17.408 0 0 1 17.390933 17.408v119.125333h528.418133A17.408 17.408 0 0 1 989.866667 247.808v102.058667H34.133333z" fill="#59db4d" p-id="8793" data-spm-anchor-id="a313x.7781069.0.i17" class="selected"></path><path d="M938.666667 640H580.266667v238.933333h358.4v-238.933333z m-34.133334 204.8H614.4v-170.666667h290.133333v170.666667z" fill="#59db4d" p-id="8794" data-spm-anchor-id="a313x.7781069.0.i13" class="selected"></path><path d="M665.6 742.4h68.266667a17.066667 17.066667 0 1 0 0-34.133333h-68.266667a17.066667 17.066667 0 1 0 0 34.133333zM802.133333 742.4h17.066667a17.066667 17.066667 0 1 0 0-34.133333h-17.066667a17.066667 17.066667 0 1 0 0 34.133333zM665.6 810.666667h187.733333a17.066667 17.066667 0 1 0 0-34.133334H665.6a17.066667 17.066667 0 1 0 0 34.133334z" fill="#59db4d" p-id="8795" data-spm-anchor-id="a313x.7781069.0.i14" class="selected"></path></svg>