<svg width="14" height="16" viewBox="0 0 14 16" fill="none" xmlns="http://www.w3.org/2000/svg">
<path d="M11.9282 11.461V2.2842C11.9282 2.12705 11.7996 1.99848 11.6424 1.99848H8.60672V0.76991C8.60672 0.662767 8.48172 0.602053 8.3978 0.668125L6.11922 2.46812C6.10381 2.48004 6.09132 2.49533 6.08273 2.51282C6.07414 2.53031 6.06968 2.54953 6.06968 2.56902C6.06968 2.5885 6.07414 2.60773 6.08273 2.62522C6.09132 2.64271 6.10381 2.658 6.11922 2.66991L8.39601 4.46991C8.47994 4.53598 8.60494 4.47705 8.60494 4.36812V3.14134H10.6407V11.461C9.85137 11.7288 9.28351 12.4771 9.28351 13.3556C9.28351 14.4592 10.1799 15.3556 11.2835 15.3556C12.3871 15.3556 13.2835 14.4592 13.2835 13.3556C13.2853 12.4771 12.7174 11.7306 11.9282 11.461ZM11.2853 14.2128C11.061 14.2082 10.8474 14.1159 10.6904 13.9556C10.5334 13.7954 10.4455 13.58 10.4455 13.3556C10.4455 13.1313 10.5334 12.9159 10.6904 12.7556C10.8474 12.5954 11.061 12.5031 11.2853 12.4985C11.5096 12.5031 11.7232 12.5954 11.8802 12.7556C12.0372 12.9159 12.1251 13.1313 12.1251 13.3556C12.1251 13.58 12.0372 13.7954 11.8802 13.9556C11.7232 14.1159 11.5096 14.2082 11.2853 14.2128ZM4.71387 2.64134C4.71387 1.53777 3.81744 0.641339 2.71387 0.641339C1.6103 0.641339 0.713867 1.53777 0.713867 2.64134C0.713867 3.51991 1.28172 4.26634 2.07101 4.53598V11.4628C1.28172 11.7306 0.713867 12.4788 0.713867 13.3574C0.713867 14.461 1.6103 15.3574 2.71387 15.3574C3.81744 15.3574 4.71387 14.461 4.71387 13.3574C4.71387 12.4788 4.14601 11.7324 3.35672 11.4628V4.53598C4.14601 4.26634 4.71387 3.51991 4.71387 2.64134ZM1.85672 2.64134C1.8613 2.41704 1.95362 2.20347 2.11387 2.04646C2.27411 1.88945 2.48952 1.80151 2.71387 1.80151C2.93821 1.80151 3.15362 1.88945 3.31387 2.04646C3.47411 2.20347 3.56643 2.41704 3.57101 2.64134C3.56643 2.86564 3.47411 3.07921 3.31387 3.23621C3.15362 3.39322 2.93821 3.48116 2.71387 3.48116C2.48952 3.48116 2.27411 3.39322 2.11387 3.23621C1.95362 3.07921 1.8613 2.86564 1.85672 2.64134ZM3.57101 13.3556C3.56643 13.5799 3.47411 13.7935 3.31387 13.9505C3.15362 14.1075 2.93821 14.1954 2.71387 14.1954C2.48952 14.1954 2.27411 14.1075 2.11387 13.9505C1.95362 13.7935 1.8613 13.5799 1.85672 13.3556C1.8613 13.1313 1.95362 12.9178 2.11387 12.7607C2.27411 12.6037 2.48952 12.5158 2.71387 12.5158C2.93821 12.5158 3.15362 12.6037 3.31387 12.7607C3.47411 12.9178 3.56643 13.1313 3.57101 13.3556Z" fill="white"/>
</svg>
