<svg width="12" height="16" viewBox="0 0 12 16" fill="none" xmlns="http://www.w3.org/2000/svg">
<path d="M11.9195 12.0214C11.6981 10.6785 10.5053 9.71603 9.14633 9.78211C7.7874 9.84818 6.69455 10.925 6.60705 12.2821C3.86597 12.1964 2.89276 11.5553 3.05169 10.2517C3.11062 9.76425 3.40526 9.50353 3.94633 9.37675C4.2749 9.29996 4.63919 9.28925 4.96955 9.31961C4.9999 9.32318 5.03205 9.32496 5.0624 9.32853C5.26419 9.37675 5.46955 9.41782 5.6749 9.44996C6.28383 9.54996 6.90347 9.59996 7.49276 9.56782C9.1499 9.47853 10.2785 8.74818 10.3356 7.19818C10.391 5.69639 9.35883 4.63211 7.69455 3.91961C7.16062 3.69104 6.59455 3.51425 6.02847 3.38032C5.77312 3.31961 5.55883 3.27854 5.3999 3.25175C5.25883 1.89639 4.12312 0.862464 2.76062 0.85175C1.39812 0.841035 0.244545 1.85354 0.0802591 3.20711C-0.0840266 4.56068 0.794545 5.81961 2.11955 6.13389C3.44455 6.44818 4.79633 5.71782 5.25705 4.43568C5.4249 4.46604 5.59097 4.49996 5.75705 4.53925C6.26062 4.65711 6.76419 4.81425 7.22848 5.01425C8.49098 5.55354 9.18026 6.26603 9.14812 7.15532C9.11955 7.95175 8.54812 8.31961 7.43026 8.38032C6.93919 8.40711 6.40169 8.36425 5.87133 8.27675C5.72312 8.25175 5.5874 8.22675 5.46776 8.19996C5.39812 8.18568 5.3499 8.17318 5.32847 8.16782L5.27312 8.15711C5.23383 8.15175 5.16776 8.14282 5.08205 8.13389C4.63562 8.09282 4.15169 8.10711 3.68026 8.21603C2.69455 8.44639 2.00347 9.05889 1.8749 10.1053C1.59455 12.3589 3.27847 13.4035 6.80347 13.4785C7.32312 14.7357 8.70347 15.4053 10.0106 15.0321C11.3195 14.6589 12.141 13.3643 11.9195 12.0214ZM2.73383 5.01782C2.53848 5.01781 2.34504 4.97932 2.16456 4.90455C1.98408 4.82978 1.8201 4.7202 1.68197 4.58205C1.54385 4.44391 1.43428 4.27991 1.35953 4.09943C1.28479 3.91894 1.24632 3.7255 1.24633 3.53014C1.24634 3.33479 1.28483 3.14135 1.3596 2.96087C1.43437 2.7804 1.54396 2.61641 1.6821 2.47828C1.82024 2.34016 1.98424 2.23059 2.16473 2.15584C2.34521 2.0811 2.53866 2.04263 2.73401 2.04264C3.12854 2.04267 3.50691 2.19942 3.78587 2.47841C4.06483 2.7574 4.22153 3.13579 4.22151 3.53032C4.22149 3.92485 4.06474 4.30322 3.78574 4.58218C3.50675 4.86114 3.12836 5.01784 2.73383 5.01782ZM9.27847 13.9428C9.08312 13.9428 8.88968 13.9043 8.70921 13.8296C8.52873 13.7548 8.36474 13.6452 8.22662 13.5071C8.08849 13.3689 7.97892 13.2049 7.90418 13.0244C7.82943 12.8439 7.79096 12.6505 7.79098 12.4551C7.79099 12.2598 7.82948 12.0664 7.90425 11.8859C7.97901 11.7054 8.0886 11.5414 8.22674 11.4033C8.36489 11.2652 8.52888 11.1556 8.70937 11.0808C8.88986 11.0061 9.0833 10.9676 9.27865 10.9676C9.67319 10.9677 10.0516 11.1244 10.3305 11.4034C10.6095 11.6824 10.7662 12.0608 10.7662 12.4553C10.7661 12.8499 10.6094 13.2282 10.3304 13.5072C10.0514 13.7861 9.67301 13.9428 9.27847 13.9428Z" fill="white"/>
</svg>
