<svg width="48" height="32" viewBox="0 0 48 32" fill="none" xmlns="http://www.w3.org/2000/svg">
<path fill-rule="evenodd" clip-rule="evenodd" d="M0 4C0 1.79086 1.79086 0 4 0H44C46.2091 0 48 1.79086 48 4V28C48 30.2091 46.2091 32 44 32H4C1.79086 32 0 30.2091 0 28V4ZM2 5C2 3.34315 3.34315 2 5 2H43C44.6569 2 46 3.34315 46 5V27C46 28.6569 44.6569 30 43 30H5C3.34315 30 2 28.6569 2 27V5ZM15 26H13V28H15V26ZM19 26H17V28H19V26ZM21 26H23V28H21V26ZM29 26H25V28H29V26ZM31 26H35V28H31V26Z" fill="#D8D8D8"/>
<path d="M19.6133 9.64648C19.6133 10.2233 19.727 10.7945 19.9477 11.3274C20.1685 11.8604 20.492 12.3446 20.8999 12.7525C21.3078 13.1604 21.792 13.4839 22.3249 13.7047C22.8579 13.9254 23.4291 14.039 24.0059 14.039C24.5828 14.039 25.1539 13.9254 25.6869 13.7047C26.2198 13.4839 26.704 13.1604 27.1119 12.7525C27.5198 12.3446 27.8434 11.8604 28.0641 11.3274C28.2849 10.7945 28.3985 10.2233 28.3985 9.64648C28.3985 9.06964 28.2849 8.49844 28.0641 7.96551C27.8434 7.43258 27.5198 6.94835 27.1119 6.54046C26.704 6.13257 26.2198 5.80902 25.6869 5.58827C25.1539 5.36752 24.5828 5.25391 24.0059 5.25391C23.4291 5.25391 22.8579 5.36752 22.3249 5.58827C21.792 5.80902 21.3078 6.13257 20.8999 6.54046C20.492 6.94835 20.1685 7.43258 19.9477 7.96551C19.727 8.49844 19.6133 9.06964 19.6133 9.64648Z" fill="#D8D8D8"/>
<path d="M32.6679 21.6445C32.1406 17.4434 28.623 14.1719 24.3144 14.0293H24.3125C24.2148 14.0254 24.1172 14.0234 24.0175 14.0234C23.9121 14.0234 23.8086 14.0254 23.705 14.0293C19.4043 14.1816 15.8964 17.4492 15.3711 21.6445C15.2988 22.2266 15.7558 22.7422 16.3437 22.7422H31.6972C32.2832 22.7422 32.7421 22.2285 32.6679 21.6445ZM28.3418 18.6055C28.3418 18.7344 28.2363 18.8398 28.1074 18.8398H25.5468C25.4179 18.8398 25.3125 18.7344 25.3125 18.6055V17.4746C25.3125 17.3457 25.4179 17.2402 25.5468 17.2402H28.1074C28.2363 17.2402 28.3418 17.3457 28.3418 17.4746V18.6055Z" fill="#D8D8D8"/>
</svg>
